<svg width="135" height="48" viewBox="0 0 135 48" fill="none" xmlns="http://www.w3.org/2000/svg">
<g clip-path="url(#clip0_82_1138)">
<path d="M19.2062 19.0978L19.0772 19.0599L18.7774 18.9991C15.1496 17.9405 13.3092 16.5856 13.3092 14.9843C13.3092 12.9315 15.3317 11.2655 17.8211 11.2655C19.6995 11.2655 21.3502 12.2066 22.0256 13.6562C22.7429 15.193 24.2988 16.1835 25.9912 16.1835C26.6323 16.1835 27.251 16.047 27.8391 15.7736C30.0212 14.753 30.9699 12.146 29.9527 9.96023C28.4349 6.7119 25.5888 4.29084 22.0978 3.18652C21.6766 1.21139 19.9197 -0.27417 17.8211 -0.27417C15.7036 -0.27417 13.9354 1.23602 13.533 3.23218C8.28115 4.93223 4.5661 9.62997 4.5661 14.9844C4.5661 19.1396 6.67219 24.6874 16.7092 27.5032L16.8345 27.5373L17.0925 27.5866C22.4809 29.1615 22.9933 29.8407 22.9933 32.2237C22.9933 34.5348 20.7848 36.4169 18.0676 36.4169C15.4607 36.4169 13.9959 35.343 13.1573 32.8233C12.5614 31.0323 10.8956 29.8293 9.00966 29.8293C8.54142 29.8293 8.07626 29.9049 7.63215 30.0533C6.5241 30.4213 5.62866 31.1992 5.105 32.2427C4.5775 33.2863 4.49398 34.4739 4.86216 35.5822C6.37625 40.1396 9.42717 43.236 13.5861 44.5072C14.0719 46.3895 15.787 47.7858 17.8211 47.7858C19.817 47.7858 21.5058 46.4389 22.0255 44.6059C27.7064 42.9894 31.7363 38.022 31.7363 32.2237C31.7363 22.7292 24.1962 20.5435 19.2062 19.0978Z" fill="#27323A"/>
<path d="M19.2783 42.1772V43.4142C19.2783 44.2188 18.6255 44.8714 17.8211 44.8714C17.0166 44.8714 16.364 44.2188 16.364 43.4142V42.1317C12.1366 41.589 9.06296 38.9896 7.62856 34.6636C7.37426 33.8971 7.78787 33.0736 8.55065 32.8195C9.31342 32.5652 10.1407 32.9788 10.3948 33.7453C11.6243 37.4529 14.2049 39.3311 18.0677 39.3311C22.3899 39.3311 25.9077 36.1436 25.9077 32.2236C25.9077 27.4005 22.9706 26.2622 17.7679 24.7481L17.4947 24.6988C10.8502 22.8318 7.48047 19.5645 7.48047 14.9843C7.48047 10.1801 11.355 6.23368 16.364 5.57327V4.09728C16.364 3.29275 17.0166 2.64014 17.8211 2.64014C18.6255 2.64014 19.2783 3.29275 19.2783 4.09728V5.53541C22.811 5.9984 25.8734 8.11578 27.3116 11.1933C27.6494 11.9258 27.3345 12.791 26.6059 13.1326C25.8734 13.4741 25.0083 13.1553 24.6706 12.4267C23.5132 9.95263 20.8266 8.35111 17.8211 8.35111C13.7266 8.35111 10.3948 11.3262 10.3948 14.9844C10.3948 18.1037 12.9145 20.3463 18.0943 21.8375L18.3941 21.8945C23.2816 23.3101 28.822 24.9151 28.822 32.2237C28.822 37.3693 24.6401 41.6155 19.2783 42.1772Z" fill="white"/>
<path d="M16.1514 8.53523C16.6901 8.42312 17.2442 8.35105 17.8211 8.35105C18.4471 8.35105 19.0525 8.43653 19.6387 8.56749V5.60553C19.5173 5.58473 19.3997 5.55248 19.2783 5.53541V4.09728C19.2783 3.29275 18.6255 2.64014 17.8212 2.64014C17.0166 2.64014 16.364 3.29275 16.364 4.09728V5.57327C16.29 5.58107 16.2236 5.60747 16.1515 5.61893V8.53523H16.1514ZM17.7679 24.7481C18.4302 24.9397 19.0525 25.1257 19.6387 25.3135V22.2606C19.2214 22.1355 18.8058 22.0121 18.3941 21.8944L18.0943 21.8375C17.4379 21.6483 16.7898 21.4319 16.1514 21.1887V24.2585C16.5954 24.4065 17.0166 24.5641 17.4947 24.6988L17.7679 24.7481ZM19.6387 39.1869C19.1302 39.28 18.6066 39.3311 18.0677 39.3311C17.3848 39.3311 16.7548 39.2497 16.1514 39.1319V42.09C16.2234 42.0995 16.2899 42.1203 16.3639 42.1318V43.4143C16.3639 44.2188 17.0165 44.8714 17.821 44.8714C18.6254 44.8714 19.2782 44.2188 19.2782 43.4143V42.1773C19.4016 42.1621 19.5154 42.124 19.6386 42.1052V39.1869H19.6387Z" fill="white"/>
<path d="M16.364 39.1755C13.444 38.6822 11.4327 36.872 10.3948 33.7451C10.1407 32.9786 9.31339 32.565 8.55062 32.8193C7.78784 33.0735 7.37417 33.8971 7.62853 34.6635C9.06299 38.9896 12.1367 41.589 16.364 42.1316V39.1755Z" fill="#A02A0D"/>
<path d="M16.3639 24.3268V21.2701C12.3567 19.7977 10.3948 17.7316 10.3948 14.9842C10.3948 11.774 12.9658 9.09102 16.3639 8.48389V5.57326C11.3549 6.23367 7.48041 10.18 7.48041 14.9843C7.48041 19.2874 10.4935 22.4143 16.3639 24.3268ZM26.6059 13.1324C27.3345 12.7909 27.6494 11.9257 27.3115 11.1932C25.8734 8.11565 22.811 5.99827 19.2783 5.53528V8.49529C21.6688 8.92018 23.7048 10.3622 24.6706 12.4265C25.0082 13.1552 25.8734 13.474 26.6059 13.1324Z" fill="#00713A"/>
<path d="M19.2783 22.1526V25.2035C23.5245 26.5316 25.9076 27.8938 25.9076 32.2236C25.9076 35.768 23.0236 38.6861 19.2783 39.2192V42.1772C24.6401 41.6155 28.822 37.3693 28.822 32.2236C28.822 25.3533 23.9248 23.5224 19.2783 22.1526Z" fill="#A02A0D"/>
</g>
<path d="M33.9141 42.496C33.5234 42.496 33.3281 42.3007 33.3281 41.91V28.9218C33.3281 28.5311 33.5234 28.3358 33.9141 28.3358H35.457C35.7826 28.3358 35.9583 28.5311 35.9844 28.9218L36.0234 29.4882H36.0625C36.401 28.9283 36.7786 28.5637 37.1953 28.3944C37.612 28.2251 38.1133 28.1405 38.6992 28.1405C40.2292 28.1405 41.3034 28.6711 41.9219 29.7323C42.5469 30.787 42.8594 32.0305 42.8594 33.4628C42.8594 34.8951 42.5469 36.1418 41.9219 37.203C41.3034 38.2577 40.2292 38.785 38.6992 38.785C38.1133 38.785 37.612 38.7004 37.1953 38.5311C36.7786 38.3619 36.401 37.9973 36.0625 37.4374H36.0234C36.0495 37.6978 36.0625 37.9582 36.0625 38.2186V41.91C36.0625 42.3007 35.8672 42.496 35.4766 42.496H33.9141ZM36.0625 33.9022C36.0625 34.7811 36.235 35.4973 36.5801 36.0507C36.9316 36.5975 37.3516 36.871 37.8398 36.871C38.7188 36.871 39.2917 36.565 39.5586 35.953C39.832 35.3345 39.9688 34.5044 39.9688 33.4628C39.9688 32.4211 39.832 31.5943 39.5586 30.9823C39.2917 30.3638 38.7188 30.0546 37.8398 30.0546C37.3516 30.0546 36.9316 30.3313 36.5801 30.8846C36.235 31.4315 36.0625 32.1444 36.0625 33.0233V33.9022ZM44.4219 33.4628C44.4219 31.8156 44.832 30.5168 45.6523 29.5663C46.4792 28.6158 47.6445 28.1405 49.1484 28.1405C50.8932 28.1405 52.1888 28.5897 53.0352 29.4882C53.8815 30.3866 54.3047 31.8319 54.3047 33.8241C54.3047 34.2147 54.1224 34.41 53.7578 34.41H47.3125C47.4167 35.4908 47.6836 36.1711 48.1133 36.451C48.543 36.731 49.041 36.871 49.6074 36.871C50.1478 36.871 50.5612 36.7994 50.8477 36.6561C51.1341 36.5129 51.375 36.3176 51.5703 36.0702C51.7917 35.7837 52.0651 35.7382 52.3906 35.9335L53.3672 36.5292C53.7513 36.7635 53.8066 37.0435 53.5332 37.369C53.1361 37.8443 52.6706 38.1991 52.1367 38.4335C51.6029 38.6678 50.7598 38.785 49.6074 38.785C47.7389 38.785 46.4076 38.3098 45.6133 37.3593C44.819 36.4087 44.4219 35.1099 44.4219 33.4628ZM47.3223 32.4569H51.5703C51.5703 31.7538 51.3945 31.1809 51.043 30.7382C50.6914 30.2889 50.1315 30.0643 49.3633 30.0643C48.7513 30.0643 48.2663 30.2792 47.9082 30.7089C47.5501 31.132 47.3548 31.7147 47.3223 32.4569ZM57.0195 38.5897C56.6289 38.5897 56.4336 38.3944 56.4336 38.0038V28.9218C56.4336 28.5311 56.6289 28.3358 57.0195 28.3358H58.5625C58.9531 28.3358 59.1484 28.5311 59.1484 28.9218V29.4882H59.1875C59.487 28.9738 59.8678 28.6223 60.3301 28.4335C60.7923 28.2382 61.349 28.1405 62 28.1405C63.0156 28.1405 63.8555 28.4595 64.5195 29.0975C65.1836 29.7356 65.5156 30.9009 65.5156 32.5936V38.0038C65.5156 38.3944 65.3203 38.5897 64.9297 38.5897H63.3672C62.9766 38.5897 62.7812 38.3944 62.7812 38.0038V33.2968C62.7812 31.8775 62.6836 30.9823 62.4883 30.6112C62.293 30.2401 61.873 30.0546 61.2285 30.0546C60.5449 30.0546 60.0306 30.3215 59.6855 30.8553C59.3405 31.3827 59.168 32.483 59.168 34.1561V38.0038C59.168 38.3944 58.9727 38.5897 58.582 38.5897H57.0195ZM67.6055 33.4628C67.6055 32.0305 67.9147 30.787 68.5332 29.7323C69.1582 28.6711 70.2357 28.1405 71.7656 28.1405C72.3516 28.1405 72.8529 28.2251 73.2695 28.3944C73.6862 28.5637 74.0638 28.9283 74.4023 29.4882H74.4414C74.4154 29.2277 74.4023 28.9673 74.4023 28.7069V24.7616C74.4023 24.371 74.5977 24.1757 74.9883 24.1757H76.5508C76.9414 24.1757 77.1367 24.371 77.1367 24.7616V38.0038C77.1367 38.3944 76.9414 38.5897 76.5508 38.5897H75.0078C74.6823 38.5897 74.5065 38.3944 74.4805 38.0038L74.4414 37.4374H74.4023C74.0638 37.9973 73.6862 38.3619 73.2695 38.5311C72.8529 38.7004 72.3516 38.785 71.7656 38.785C70.2357 38.785 69.1582 38.2577 68.5332 37.203C67.9147 36.1418 67.6055 34.8951 67.6055 33.4628ZM70.4961 33.4628C70.4961 34.5044 70.6296 35.3345 70.8965 35.953C71.1699 36.565 71.7461 36.871 72.625 36.871C73.1133 36.871 73.5299 36.5975 73.875 36.0507C74.2266 35.4973 74.4023 34.7811 74.4023 33.9022V33.0233C74.4023 32.1444 74.2266 31.4315 73.875 30.8846C73.5299 30.3313 73.1133 30.0546 72.625 30.0546C71.7461 30.0546 71.1699 30.3638 70.8965 30.9823C70.6296 31.5943 70.4961 32.4211 70.4961 33.4628Z" fill="#00713A"/>
<path d="M80.1934 37.5448C79.7897 37.2388 79.6921 36.9296 79.9004 36.6171L80.6523 35.4843C80.8997 35.1132 81.2611 35.0936 81.7363 35.4257C82.1009 35.6796 82.5762 35.9432 83.1621 36.2167C83.7546 36.4836 84.3763 36.6171 85.0273 36.6171C85.4831 36.6171 85.9225 36.565 86.3457 36.4608C86.7689 36.3566 87.0911 36.1548 87.3125 35.8553C87.5339 35.5559 87.6445 35.201 87.6445 34.7909C87.6445 34.4979 87.5957 34.2408 87.498 34.0194C87.4004 33.7981 87.2409 33.6158 87.0195 33.4725C86.7982 33.3293 86.5703 33.2089 86.3359 33.1112C85.9258 32.9419 85.4082 32.7759 84.7832 32.6132C84.1647 32.4439 83.5527 32.2421 82.9473 32.0077C82.4069 31.7994 81.9121 31.5129 81.4629 31.1483C81.0137 30.7837 80.6654 30.3736 80.418 29.9178C80.1706 29.4621 80.0469 28.8534 80.0469 28.0917C80.0469 27.1867 80.3398 26.412 80.9258 25.7675C81.5117 25.1229 82.1855 24.7095 82.9473 24.5272C83.709 24.3449 84.4772 24.2538 85.252 24.2538C86.0202 24.2538 86.8112 24.371 87.625 24.6053C88.4453 24.8397 89.0638 25.1327 89.4805 25.4843C89.8906 25.8293 89.9915 26.1418 89.7832 26.4218L88.9922 27.4862C88.7253 27.8508 88.3672 27.8801 87.918 27.5741C87.6315 27.3788 87.2376 27.1607 86.7363 26.9198C86.2415 26.6789 85.724 26.5585 85.1836 26.5585C84.7995 26.5585 84.4447 26.591 84.1191 26.6561C83.8001 26.7212 83.5169 26.8775 83.2695 27.1249C83.0221 27.3723 82.8984 27.6783 82.8984 28.0428C82.8984 28.3944 82.9896 28.6809 83.1719 28.9022C83.3542 29.1171 83.556 29.2798 83.7773 29.3905C83.9987 29.4947 84.2233 29.5826 84.4512 29.6542C85.1543 29.882 85.7826 30.0839 86.3359 30.2596C86.8893 30.4289 87.4004 30.6177 87.8691 30.826C88.5202 31.119 89.0182 31.412 89.3633 31.705C89.7083 31.9979 89.9915 32.3983 90.2129 32.9061C90.4408 33.4139 90.5547 34.0194 90.5547 34.7225C90.5547 35.7642 90.2227 36.6268 89.5586 37.3104C88.8945 37.9875 88.1556 38.4237 87.3418 38.619C86.5345 38.8208 85.7467 38.9218 84.9785 38.9218C83.8457 38.9218 82.9245 38.8111 82.2148 38.5897C81.5052 38.3749 80.8314 38.0266 80.1934 37.5448ZM93.1523 38.5897C92.7617 38.5897 92.5664 38.3944 92.5664 38.0038V28.9218C92.5664 28.5311 92.7617 28.3358 93.1523 28.3358H94.6953C95.0859 28.3358 95.2812 28.5311 95.2812 28.9218V29.4882H95.3203C95.5091 29.0715 95.8281 28.7427 96.2773 28.5018C96.7266 28.2609 97.1465 28.1405 97.5371 28.1405C98.3184 28.1405 98.9238 28.3228 99.3535 28.6874C99.7897 29.052 100.089 29.4589 100.252 29.9081H100.291C100.857 29.1724 101.368 28.6939 101.824 28.4725C102.286 28.2512 102.876 28.1405 103.592 28.1405C104.555 28.1405 105.366 28.4595 106.023 29.0975C106.688 29.7356 107.02 30.9009 107.02 32.5936V38.0038C107.02 38.3944 106.824 38.5897 106.434 38.5897H104.871C104.48 38.5897 104.285 38.3944 104.285 38.0038V33.2968C104.285 31.8775 104.188 30.9823 103.992 30.6112C103.803 30.2401 103.465 30.0546 102.977 30.0546C102.521 30.0546 102.104 30.3215 101.727 30.8553C101.349 31.3892 101.16 32.4895 101.16 34.1561V38.0038C101.16 38.3944 100.965 38.5897 100.574 38.5897H99.0117C98.6211 38.5897 98.4258 38.3944 98.4258 38.0038V33.2968C98.4258 31.8775 98.3281 30.9823 98.1328 30.6112C97.944 30.2401 97.6055 30.0546 97.1172 30.0546C96.6615 30.0546 96.2448 30.3215 95.8672 30.8553C95.4896 31.3827 95.3008 32.483 95.3008 34.1561V38.0038C95.3008 38.3944 95.1055 38.5897 94.7148 38.5897H93.1523ZM109.109 35.8553C109.109 34.5533 109.731 33.6093 110.975 33.0233C112.218 32.4374 113.637 32.1249 115.232 32.0858V31.6952C115.232 31.0962 115.083 30.6731 114.783 30.4257C114.484 30.1783 114.067 30.0546 113.533 30.0546C113.156 30.0546 112.82 30.1099 112.527 30.2206C112.241 30.3247 111.99 30.4484 111.775 30.5917C111.567 30.7284 111.378 30.8684 111.209 31.0116C110.91 31.272 110.662 31.285 110.467 31.0507L109.656 30.0546C109.454 29.8072 109.503 29.5533 109.803 29.2928C110.031 29.091 110.294 28.9152 110.594 28.7655C110.9 28.6158 111.303 28.4758 111.805 28.3456C112.306 28.2089 112.957 28.1405 113.758 28.1405C115.112 28.1405 116.15 28.453 116.873 29.078C117.602 29.703 117.967 30.6242 117.967 31.8417V38.0038C117.967 38.3944 117.771 38.5897 117.381 38.5897H115.779C115.428 38.5897 115.252 38.3944 115.252 38.0038V37.7108H115.232C114.848 38.0819 114.386 38.3553 113.846 38.5311C113.312 38.7004 112.82 38.785 112.371 38.785C111.303 38.785 110.493 38.5246 109.939 38.0038C109.386 37.4764 109.109 36.7603 109.109 35.8553ZM112 35.7968C112 36.0246 112.046 36.2232 112.137 36.3925C112.228 36.5552 112.371 36.6757 112.566 36.7538C112.762 36.8319 112.98 36.871 113.221 36.871C113.553 36.871 113.875 36.8254 114.188 36.7343C114.5 36.6431 114.848 36.4283 115.232 36.0897V33.9706C114.139 34.0943 113.406 34.2538 113.035 34.4491C112.664 34.6444 112.397 34.8462 112.234 35.0546C112.078 35.2629 112 35.5103 112 35.7968ZM121.219 38.5897C120.828 38.5897 120.633 38.3944 120.633 38.0038V28.9218C120.633 28.5311 120.828 28.3358 121.219 28.3358H122.762C123.152 28.3358 123.348 28.5311 123.348 28.9218V29.7225H123.387C123.556 29.3059 123.839 28.938 124.236 28.619C124.633 28.3 125.102 28.1405 125.643 28.1405C126.014 28.1405 126.32 28.1861 126.561 28.2772C126.788 28.3619 126.876 28.5181 126.824 28.746L126.551 29.9081C126.492 30.1685 126.316 30.2466 126.023 30.1425C125.854 30.0839 125.691 30.0546 125.535 30.0546C124.91 30.0546 124.393 30.4289 123.982 31.1776C123.572 31.9263 123.367 33.0168 123.367 34.4491V38.0038C123.367 38.3944 123.172 38.5897 122.781 38.5897H121.219ZM127.967 30.2889C127.583 30.2889 127.391 30.1262 127.391 29.8007V28.8241C127.391 28.4986 127.583 28.3358 127.967 28.3358H128.631V27.994C128.631 27.701 128.699 27.4341 128.836 27.1932L129.588 25.8749C129.731 25.6275 129.9 25.5038 130.096 25.5038H130.779C131.17 25.5038 131.365 25.6991 131.365 26.0897V28.3358H132.947C133.331 28.3358 133.523 28.4986 133.523 28.8241V29.8007C133.523 30.1262 133.331 30.2889 132.947 30.2889H131.365V35.1327C131.365 35.7968 131.411 36.2753 131.502 36.5682C131.6 36.8547 131.847 36.9979 132.244 36.9979C132.446 36.9979 132.674 36.9654 132.928 36.9003C133.182 36.8287 133.38 36.7603 133.523 36.6952C133.751 36.591 133.901 36.6659 133.973 36.9198L134.266 38.0331C134.324 38.2544 134.24 38.4172 134.012 38.5214C133.797 38.619 133.501 38.7069 133.123 38.785C132.752 38.8697 132.378 38.912 132 38.912C131.069 38.912 130.275 38.7199 129.617 38.3358C128.96 37.9517 128.631 37.1607 128.631 35.9628V30.2889H127.967Z" fill="#A02A0D"/>
<defs>
<clipPath id="clip0_82_1138">
<rect width="32" height="47.5897" fill="white"/>
</clipPath>
</defs>
</svg>
